<?xml version="1.0" standalone="no"?>
<!DOCTYPE svg PUBLIC "-//W3C//DTD SVG 20010904//EN"
 "http://www.w3.org/TR/2001/REC-SVG-20010904/DTD/svg10.dtd">
<svg version="1.0" xmlns="http://www.w3.org/2000/svg"
 width="300.000000pt" height="300.000000pt" viewBox="0 0 300.000000 300.000000"
 preserveAspectRatio="xMidYMid meet">
<metadata>
Created by potrace 1.10, written by Peter Selinger 2001-2011
</metadata>
<g transform="translate(0.000000,300.000000) scale(0.100000,-0.100000)"
fill="#000000" stroke="none">
<path d="M996 2789 c-150 -22 -361 -97 -521 -186 -117 -65 -144 -86 -151 -116
-3 -17 -20 -37 -43 -52 l-36 -24 -118 -438 c-65 -241 -118 -445 -117 -453 0
-25 21 -40 57 -40 21 0 36 -6 41 -17 5 -10 15 -173 21 -363 22 -656 32 -864
43 -877 8 -10 96 -13 393 -13 421 0 394 -4 419 66 8 24 20 40 32 43 33 6 39
17 80 136 21 63 42 115 46 115 5 0 8 -76 8 -169 0 -130 3 -171 14 -180 9 -8
126 -10 412 -9 l399 3 20 43 c11 24 31 48 45 55 26 13 25 9 355 755 l200 452
31 0 c38 0 48 11 63 68 10 35 16 42 36 42 13 0 29 8 34 18 5 9 35 105 66 212
31 107 72 247 91 310 58 197 77 277 71 292 -8 23 -212 124 -329 162 -119 40
-282 75 -383 83 -79 6 -87 1 -102 -56 -7 -27 -16 -37 -40 -43 -28 -7 -32 -15
-62 -110 -53 -167 -160 -504 -201 -628 l-37 -115 18 -31 c11 -17 19 -40 19
-50 0 -24 -132 -303 -144 -304 -5 0 -6 36 -3 83 4 45 7 144 7 220 0 145 2 152
54 182 12 7 27 52 50 150 18 77 64 270 101 428 51 216 66 293 58 305 -17 27
-137 42 -405 48 l-248 7 -15 -39 c-24 -59 -30 -68 -55 -74 -17 -4 -28 -19 -42
-60 -35 -102 -238 -813 -238 -834 0 -7 7 -19 15 -26 8 -7 15 -25 15 -40 0 -24
-121 -301 -142 -325 -12 -13 2 415 14 438 5 10 23 23 39 29 17 6 31 19 34 31
3 12 34 200 70 417 35 217 67 409 71 426 6 32 -15 65 -39 63 -7 -1 -38 -5 -71
-10z m64 -51 c0 -7 -31 -197 -68 -421 -65 -385 -70 -409 -92 -420 -55 -28 -58
-39 -69 -357 -7 -162 -14 -335 -18 -385 -4 -63 -2 -87 5 -80 19 17 342 722
342 745 0 12 -7 37 -16 55 -15 32 -14 38 9 117 14 46 59 207 101 358 42 151
85 302 94 335 l18 60 190 -2 c152 -2 393 -17 400 -26 1 -1 -42 -185 -95 -408
-96 -405 -96 -406 -132 -440 l-36 -34 -7 -240 c-3 -132 -9 -295 -12 -363 -4
-67 -2 -122 2 -122 5 0 80 141 167 313 133 265 157 320 157 358 0 24 -6 53
-13 64 -12 18 -3 55 78 308 51 159 108 340 126 403 l34 115 55 -7 c103 -11
255 -45 358 -80 120 -40 314 -133 309 -148 -2 -6 -53 -181 -113 -388 l-109
-378 -42 0 c-47 0 -97 -34 -107 -74 -3 -13 -125 -293 -271 -621 -146 -329
-265 -602 -265 -607 0 -8 -738 -1 -748 7 -1 1 -6 149 -11 329 -5 180 -11 330
-15 333 -7 7 -12 -6 -111 -287 -46 -129 -96 -270 -111 -314 l-29 -78 -59 6
c-32 3 -193 6 -357 6 l-298 0 -5 43 c-3 23 -13 267 -21 542 -8 275 -18 528
-21 562 -6 72 -29 108 -75 118 -22 5 -28 11 -25 23 23 80 188 703 201 759 16
72 17 73 73 107 159 95 370 181 521 211 86 17 111 18 111 3z m260 -102 c0 -2
-47 -169 -105 -372 -89 -313 -103 -370 -91 -383 36 -43 32 -57 -135 -417 -88
-192 -163 -351 -166 -354 -3 -3 -2 12 1 34 4 21 61 155 127 297 65 143 119
267 119 275 0 9 -7 32 -16 50 -17 35 -16 38 76 362 131 465 147 512 170 512
11 0 20 -2 20 -4z m856 -91 c-3 -9 -53 -164 -112 -346 l-105 -331 16 -35 c11
-22 15 -48 12 -68 -8 -48 -301 -630 -305 -605 -2 11 48 120 112 246 122 238
135 282 102 330 -14 19 -4 56 110 410 68 214 124 395 124 402 0 6 12 12 26 12
19 0 25 -4 20 -15z m-1935 -501 c-55 -203 -103 -381 -106 -396 -7 -26 -5 -28
24 -28 21 0 41 -9 56 -25 21 -20 25 -34 25 -82 0 -32 9 -294 20 -583 11 -289
20 -537 20 -552 l0 -28 340 0 c187 0 340 -1 340 -3 0 -2 -7 -23 -15 -48 l-15
-44 -363 3 c-199 2 -362 4 -363 5 -1 1 -11 272 -23 602 -24 674 -20 647 -95
653 -28 3 -36 7 -32 18 3 8 56 200 117 427 97 364 113 415 137 434 14 12 28
21 30 19 1 -2 -42 -170 -97 -372z m2409 -436 c-10 -40 -15 -45 -41 -45 -34 0
-33 -1 -14 37 14 27 55 64 62 56 2 -2 -1 -24 -7 -48z m-1381 -1100 l1 -158
359 0 360 0 -22 -50 -22 -50 -377 0 -378 0 0 278 0 277 32 94 33 93 6 -163 c3
-90 7 -235 8 -321z"/>
</g>
</svg>
