<svg xmlns="http://www.w3.org/2000/svg" viewBox="0 0 381 269"><path fill="#d4b47c" stroke="#d4b47c" d="M119 2.57C89.788 7.286 44.706 24.673 41.443 32.481c-1.073 2.568-2.743 4.177-5.963 5.741l-4.473 2.173L16.003 85.99C7.752 111.067 1 132.128 1 132.792c0 .67 1.308 1.208 2.935 1.208 4.221 0 7.738 1.566 9.443 4.205 1.567 2.426 2.808 23.041 6.222 103.295.375 8.8.808 16.675.964 17.5.156.825.317 3.188.359 5.25L21 268h97.092l2.425-5.25c2.046-4.43 2.921-5.328 5.601-5.75 3.834-.604 3.063.701 12.997-22 4.452-10.175 8.498-18.927 8.99-19.45.531-.563.95 3.305 1.03 9.5.075 5.748.412 17.65.75 26.45l.615 16 50 .255 50 .255 2.873-5.505c2.391-4.582 3.32-5.505 5.543-5.505 2.442 0 3.559-1.648 13.054-19.25 5.711-10.588 14.065-26 18.565-34.25 4.501-8.25 10.104-18.6 12.453-23 9.739-18.242 25.396-47.151 26.645-49.195 1.016-1.662 2.476-2.268 6.026-2.5l4.685-.305 1.911-5.75c1.878-5.65 1.978-5.75 5.694-5.75h3.783l6.566-18.75c3.611-10.312 10.209-29.05 14.662-41.638 4.454-12.588 7.942-23.043 7.752-23.233-1.273-1.274-22.271-9.708-30.647-12.31-18.387-5.713-45.076-10.8-59.393-11.321l-6.828-.248-2.227 5.5c-2.058 5.08-2.499 5.523-5.774 5.802-4.003.34-1.997-3.991-21.161 45.698a7097.54 7097.54 0 0 1-7.957 20.5c-8.697 22.295-8.255 20.511-5.84 23.581 4.206 5.347 3.607 6.871-13.885 35.33-5.775 9.395-10.865 17.084-11.311 17.086-.446.002-.576-1.909-.288-4.247s.807-16.169 1.153-30.736c.681-28.703.719-28.899 6.335-32.444 3.041-1.919 4.057-3.371 5.066-7.236.694-2.659 2.4-8.659 3.79-13.334 1.39-4.675 3.31-11.425 4.265-15 .955-3.575 4.719-16.729 8.363-29.232 8.224-28.209 8.193-26.332.448-27.209-11.691-1.322-33.358-2.35-52.916-2.509L172.309.89l-2.626 6.055c-2.445 5.638-2.852 6.055-5.904 6.062-3.906.008-4.886 2.191-17.283 38.493-4.132 12.1-9.857 28.831-12.723 37.179-4.949 14.416-5.125 15.274-3.504 17.066 3.428 3.787 3.181 7.278-1.043 14.776a3045.196 3045.196 0 0 0-6.99 12.479 6800.311 6800.311 0 0 1-10.645 19l-7.586 13.5.042-5c.023-2.75.633-17.508 1.355-32.796l1.312-27.796 2.781-2.903c1.529-1.596 3.685-3.038 4.791-3.204 2.822-.423 3.01-1.021 7.158-22.801 2.043-10.725 5.055-26.025 6.693-34 1.639-7.975 3.649-18.325 4.468-23 .818-4.675 1.742-9.518 2.053-10.762C135.323.576 132.183.442 119 2.57m40.246 20.18c-1.67 4.263-8.267 23.05-14.659 41.75-6.393 18.7-12.071 35.047-12.618 36.326-.785 1.834-.57 2.866 1.018 4.885 3.983 5.063 3.082 7.534-13.487 37.029-8.525 15.175-15.497 28.304-15.493 29.175.007 1.39 10.875-17.292 28.749-49.415 3.06-5.5 6.842-12.144 8.404-14.765 3.355-5.63 3.56-8.55.84-12.008-2.67-3.394-3.6.187 11-42.342C168.011 9.657 166.46 15 164.141 15c-1.39 0-2.623 1.952-4.895 7.75m108.371 17c-27.835 71.22-26.49 67.377-24.347 69.52 1.61 1.61 1.874 2.946 1.501 7.592-.414 5.149-1.534 7.373-12.911 25.638-15.223 24.439-17.522 28.311-15.966 26.896.668-.607 9.512-14.557 19.654-31 19.921-32.297 20.823-34.474 16.297-39.332l-2.154-2.312 2.065-5.626c1.726-4.699 24.322-62.951 25.942-66.876.313-.758-.281-1.25-1.509-1.25-1.692 0-3.101 2.753-8.572 16.75M34.926 41.528c-1.699.892-2.998 2.814-3.825 5.662-.689 2.37-7.069 21.995-14.177 43.609C2.416 134.916 3.157 132 6.453 132c1.349 0 3.593.519 4.986 1.154 5.252 2.393 5.623 4.103 7.101 32.684 2.052 39.703 4.46 91.609 4.46 96.161V266h93.804l.996-2.75a159.37 159.37 0 0 1 1.705-4.5c.669-1.651-1.788-1.75-43.398-1.75-41.34 0-44.107-.11-44.107-1.75.001-5.984-6.132-125.167-6.535-126.982-.62-2.799-5.267-5.268-9.915-5.268-2.171 0-3.552-.486-3.555-1.25-.003-.687 5.88-19.179 13.074-41.093 7.193-21.913 12.933-39.986 12.755-40.161-.178-.176-1.482.288-2.898 1.032m302.304 79.023c-4.103 2.874-4.756 5.449-1.382 5.449 1.921 0 3.091-.598 3.422-1.75.277-.963.827-2.537 1.224-3.5.89-2.164-.35-2.24-3.264-.199m-182.599 80.397-3.763 8.888.663 23.332c.364 12.832.814 24.682.998 26.332.185 1.65.366 3.788.404 4.75.063 1.641 3.041 1.75 47.982 1.75h47.914l2.515-4.5 2.515-4.5h-92.634l-.627-24.75c-.655-25.857-1.282-39.267-1.861-39.846-.188-.189-2.036 3.656-4.106 8.544" fill-rule="evenodd"/><path fill="#c6bdab" stroke="#c6bdab" d="M114 4.049C86.633 8.97 42.953 26.386 41.51 32.953c-.495 2.257-1.882 3.703-5.501 5.737l-4.839 2.721-3.976 12.044c-6.542 19.817-24.899 75.874-25.64 78.295-.645 2.108-.397 2.25 3.924 2.25 6.676 0 9.158 2.782 9.911 11.11.591 6.543 2.885 51.421 4.952 96.89l1.159 25.5 48.109.26 48.109.259 2.697-6.009c2.475-5.515 2.96-6.012 5.891-6.035 3.151-.025 3.28-.221 9.621-14.75 3.534-8.099 7.788-17.65 9.453-21.225l3.028-6.5.672 7c.369 3.85.731 13.075.803 20.5.072 7.425.418 16.537.769 20.25l.637 6.75h98.487l3.404-5.75c2.532-4.277 4.054-5.827 5.94-6.05 2.807-.332.11 4.396 45.671-80.045C331.877 125.956 330.556 128 335.92 128c3.839 0 3.991-.135 5.893-5.25 1.811-4.87 2.226-5.286 5.732-5.75 3.641-.482 3.863-.74 6.023-7 1.234-3.575 4.258-12.125 6.719-19C369.486 65.313 380 35.261 380 34.655c0-1.083-11.651-6.564-21.775-10.243-20.106-7.308-60.287-15.329-71.279-14.23-2.832.283-3.398.896-5.134 5.568-1.832 4.928-2.161 5.25-5.368 5.25-3.785 0-3.7-.134-9.449 15a2422.127 2422.127 0 0 1-6.359 16.5c-1.93 4.95-7.522 19.346-12.425 31.991l-8.914 22.991 2.049 2.772c4.316 5.838 3.871 6.931-15.772 38.746-10.422 16.881-10.578 17.014-10.558 8.964.031-12.066 1.949-56.277 2.519-58.076.442-1.391 3.83-4.024 8.159-6.339.608-.325 25.31-87.878 24.907-88.281-1.321-1.321-18.106-2.376-46.677-2.934l-31.577-.617-2.267 5.587c-2.09 5.149-2.542 5.61-5.772 5.891-4.558.397-2.578-4.553-29.284 73.178l-6.141 17.874 2.058 2.191c3.022 3.216 2.606 7.879-1.285 14.431-1.84 3.097-8.191 14.293-14.115 24.881-5.923 10.588-11.184 19.25-11.69 19.25-.506 0-.694-2.137-.418-4.75.276-2.612.737-10.825 1.025-18.25 1.799-46.503 1.463-44.624 8.613-48.229l3.429-1.729 9.01-45.021L134.519 2l-5.009.081c-2.756.044-9.735.93-15.51 1.968m12.5-.36c-16.472 2.137-36.123 7.258-53 13.812-12.941 5.025-27.931 12.086-29.285 13.794C43.187 32.592 15 118.084 15 119.905c0 .602 1.147 1.095 2.55 1.095 3.444 0 8.135 2.543 9.542 5.173.992 1.853 6.798 106.115 6.883 123.587l.025 5.26 47.117-.26 47.117-.26 15.693-35.334c8.631-19.434 16.116-35.409 16.633-35.5.555-.098 1.411 14.386 2.09 35.334.632 19.525 1.195 35.613 1.25 35.75.055.137 21.812.238 48.35.223l48.25-.026 35.777-66.312c19.677-36.472 37.04-67.523 38.585-69.003 1.912-1.831 4.829-3.102 9.136-3.981l6.328-1.291 13.826-38.93c7.605-21.411 13.831-39.432 13.837-40.046.027-2.776-29.133-13.333-48.989-17.735-10.681-2.369-26.518-4.839-38.583-6.018l-5.083-.497-16.47 42.317c-16.207 41.639-16.442 42.352-14.667 44.543 4.792 5.918 3.644 8.671-18.794 45.082-22.585 36.649-21.175 34.486-21.966 33.695-.896-.897 1.57-75.032 2.577-77.484.501-1.218 2.649-3.312 4.775-4.654l3.865-2.44 12.214-42.722c6.718-23.497 12.081-42.855 11.919-43.018-.877-.877-26.515-2.491-49.024-3.086l-25.736-.681-2.204 4.907c-1.212 2.699-8.338 22.682-15.836 44.407l-13.633 39.5 1.819 3c3.006 4.956 2.32 8.659-3.476 18.759-2.916 5.082-12.674 22.411-21.684 38.507-9.009 16.097-16.756 28.891-17.216 28.431-.459-.459-.398-10.029.137-21.266.535-11.237 1.232-27.181 1.55-35.431 1.008-26.175 1.037-26.289 7.995-30.68l3.98-2.511 8.59-43.655c7.148-36.33 8.326-43.629 7.02-43.504-.863.082-2.919.325-4.569.539m33.388 16.061c-1.122 2.613-8.097 22.3-15.5 43.75l-13.458 39 2.035 3.636c3.224 5.761 2.892 6.631-14.014 36.667-9.614 17.081-15.929 29.352-15.75 30.605.234 1.638 31.847-52.831 40.681-70.093 1.22-2.382.149-6.518-2.422-9.359-1.223-1.351 14.997-51.963 24.421-76.206.993-2.554.89-2.75-1.441-2.75-2.043 0-2.892.886-4.552 4.75m97.302 45.368c-15.136 39.063-16.195 42.219-14.707 43.863 5.094 5.629 3.724 9.358-13.916 37.874-7.462 12.063-13.553 22.543-13.535 23.289.049 2.1 1.659-.332 21.162-31.981 19.659-31.901 20.695-34.459 15.983-39.474l-2.095-2.23 14.335-36.73c14.307-36.656 14.33-36.729 11.709-36.716-2.533.012-3.205 1.506-18.936 42.105M34.899 40.763c-2.283 1.387-4.335 6.878-16.796 44.947-7.808 23.852-14.424 43.963-14.704 44.692-.348.907.725 1.522 3.396 1.949 4.902.784 8.883 3.853 9.613 7.411.309 1.506 1.688 26.813 3.064 56.238 1.377 29.425 2.774 57.213 3.105 61.75l.603 8.25h93.744l1.854-4.25 1.853-4.25-43.815-.26c-24.099-.144-43.867-.369-43.929-.5-.063-.132-1.558-29.219-3.322-64.638l-3.209-64.399-2.734-2.351C21.767 123.755 19.64 123 17.003 123c-2.137 0-4.109-.363-4.383-.806-.274-.443 5.549-19.197 12.941-41.675C32.952 58.041 39 39.504 39 39.325c0-.653-1.56-.106-4.101 1.438m302.994 78.734c-2.301 1.251-5.893 5.498-5.893 6.968 0 .294 1.533.535 3.406.535 3.143 0 3.524-.348 4.939-4.5 1.665-4.886 1.464-5.131-2.452-3.003m-179.077 71.05c-.376.577-2.413 5.077-4.527 10l-3.842 8.953.686 19c.378 10.45.728 23.162.777 28.25L152 266h97.601l2.187-4.5 2.186-4.5h-91.777l-.58-11.25c-.319-6.187-.926-21.375-1.349-33.75-.422-12.375-1.076-22.029-1.452-21.453" fill-rule="evenodd"/></svg>